<mxfile host="app.diagrams.net" modified="2023-12-04T14:47:25.322Z" agent="Mozilla/5.0 (Macintosh; Intel Mac OS X 10_15_7) AppleWebKit/537.36 (KHTML, like Gecko) Chrome/119.0.0.0 Safari/537.36" etag="Pdq6EqOaYZVx-3QqfU5K" version="21.8.2" type="github">
  <diagram name="Page-1" id="8lwMY1cOFgHJmZkkJoiv">
    <mxGraphModel dx="1983" dy="862" grid="1" gridSize="10" guides="1" tooltips="1" connect="1" arrows="1" fold="1" page="1" pageScale="1" pageWidth="850" pageHeight="1100" math="0" shadow="0">
      <root>
        <mxCell id="0" />
        <mxCell id="1" parent="0" />
        <mxCell id="fSwW73Qlo9bvHGf77OnI-8" value="" style="rounded=1;whiteSpace=wrap;html=1;" vertex="1" parent="1">
          <mxGeometry x="110" y="480" width="630" height="230" as="geometry" />
        </mxCell>
        <mxCell id="fSwW73Qlo9bvHGf77OnI-5" value="" style="rounded=1;whiteSpace=wrap;html=1;" vertex="1" parent="1">
          <mxGeometry x="110" y="150" width="630" height="140" as="geometry" />
        </mxCell>
        <mxCell id="fSwW73Qlo9bvHGf77OnI-4" style="edgeStyle=orthogonalEdgeStyle;rounded=0;orthogonalLoop=1;jettySize=auto;html=1;startArrow=classic;startFill=1;fillColor=#d5e8d4;strokeColor=#82b366;" edge="1" parent="1" source="fSwW73Qlo9bvHGf77OnI-1" target="fSwW73Qlo9bvHGf77OnI-2">
          <mxGeometry relative="1" as="geometry" />
        </mxCell>
        <mxCell id="fSwW73Qlo9bvHGf77OnI-1" value="Jenkins master" style="rounded=1;whiteSpace=wrap;html=1;" vertex="1" parent="1">
          <mxGeometry x="170" y="190" width="120" height="60" as="geometry" />
        </mxCell>
        <mxCell id="fSwW73Qlo9bvHGf77OnI-2" value="Jenkins slave&lt;br&gt;(VPC CNI plugin)" style="rounded=1;whiteSpace=wrap;html=1;" vertex="1" parent="1">
          <mxGeometry x="550" y="190" width="120" height="60" as="geometry" />
        </mxCell>
        <mxCell id="fSwW73Qlo9bvHGf77OnI-3" value="Jenkins slave&lt;br&gt;(Cilium plugin)" style="rounded=1;whiteSpace=wrap;html=1;" vertex="1" parent="1">
          <mxGeometry x="550" y="630" width="120" height="60" as="geometry" />
        </mxCell>
        <mxCell id="fSwW73Qlo9bvHGf77OnI-10" style="edgeStyle=orthogonalEdgeStyle;rounded=0;orthogonalLoop=1;jettySize=auto;html=1;entryX=0.5;entryY=0;entryDx=0;entryDy=0;startArrow=classic;startFill=1;fillColor=#d5e8d4;strokeColor=#82b366;" edge="1" parent="1" source="fSwW73Qlo9bvHGf77OnI-6" target="fSwW73Qlo9bvHGf77OnI-3">
          <mxGeometry relative="1" as="geometry" />
        </mxCell>
        <mxCell id="fSwW73Qlo9bvHGf77OnI-6" value="EC2 host" style="rounded=1;whiteSpace=wrap;html=1;" vertex="1" parent="1">
          <mxGeometry x="550" y="530" width="120" height="60" as="geometry" />
        </mxCell>
        <mxCell id="fSwW73Qlo9bvHGf77OnI-9" style="edgeStyle=orthogonalEdgeStyle;rounded=0;orthogonalLoop=1;jettySize=auto;html=1;startArrow=classic;startFill=1;fillColor=#d5e8d4;strokeColor=#82b366;" edge="1" parent="1" source="fSwW73Qlo9bvHGf77OnI-7" target="fSwW73Qlo9bvHGf77OnI-6">
          <mxGeometry relative="1" as="geometry" />
        </mxCell>
        <mxCell id="fSwW73Qlo9bvHGf77OnI-11" style="edgeStyle=none;rounded=0;orthogonalLoop=1;jettySize=auto;html=1;entryX=0;entryY=0.5;entryDx=0;entryDy=0;dashed=1;fillColor=#f8cecc;strokeColor=#b85450;" edge="1" parent="1" source="fSwW73Qlo9bvHGf77OnI-7" target="fSwW73Qlo9bvHGf77OnI-3">
          <mxGeometry relative="1" as="geometry" />
        </mxCell>
        <mxCell id="fSwW73Qlo9bvHGf77OnI-7" value="Jenkins master" style="rounded=1;whiteSpace=wrap;html=1;" vertex="1" parent="1">
          <mxGeometry x="170" y="530" width="120" height="60" as="geometry" />
        </mxCell>
        <mxCell id="fSwW73Qlo9bvHGf77OnI-13" style="edgeStyle=none;rounded=0;orthogonalLoop=1;jettySize=auto;html=1;exitX=0;exitY=0;exitDx=60;exitDy=80;exitPerimeter=0;entryX=0.75;entryY=0;entryDx=0;entryDy=0;dashed=1;" edge="1" parent="1" source="fSwW73Qlo9bvHGf77OnI-12" target="fSwW73Qlo9bvHGf77OnI-5">
          <mxGeometry relative="1" as="geometry" />
        </mxCell>
        <mxCell id="fSwW73Qlo9bvHGf77OnI-12" value="Jenkins master and slave pod in the same network" style="shape=callout;whiteSpace=wrap;html=1;perimeter=calloutPerimeter;" vertex="1" parent="1">
          <mxGeometry x="680" y="20" width="120" height="80" as="geometry" />
        </mxCell>
        <mxCell id="fSwW73Qlo9bvHGf77OnI-15" style="edgeStyle=none;rounded=0;orthogonalLoop=1;jettySize=auto;html=1;entryX=0.75;entryY=0;entryDx=0;entryDy=0;dashed=1;" edge="1" parent="1" source="fSwW73Qlo9bvHGf77OnI-14" target="fSwW73Qlo9bvHGf77OnI-8">
          <mxGeometry relative="1" as="geometry" />
        </mxCell>
        <mxCell id="fSwW73Qlo9bvHGf77OnI-14" value="Jenkins master and slave pod are not in the same network; slave is in overlay network" style="shape=callout;whiteSpace=wrap;html=1;perimeter=calloutPerimeter;" vertex="1" parent="1">
          <mxGeometry x="650" y="310" width="180" height="110" as="geometry" />
        </mxCell>
      </root>
    </mxGraphModel>
  </diagram>
</mxfile>
